<svg xmlns="http://www.w3.org/2000/svg" width="101" height="77" viewBox="0 0 101 77"><g><g><g><g><path fill="#fff" d="M.963 60.979h1.545v6.996l7.023-6.996h2.015l-7.561 7.356 8.209 8.257h-2.129l-7.557-7.806v7.806H.963z"/></g><g><path fill="#fff" d="M19.465 71.535c0 .297-.013.68-.046 1.143a3.63 3.63 0 0 1-.38 1.365c-.207.43-.545.803-1.005 1.115-.476.331-1.128.492-1.949.492-.655 0-1.21-.16-1.652-.492-.48-.312-.719-.833-.719-1.563 0-.626.173-1.128.515-1.5.315-.374.73-.652 1.25-.829a7.016 7.016 0 0 1 1.746-.382 40.554 40.554 0 0 1 1.837-.043h.403zm.132 5.057h1.39c-.088-.73-.126-1.53-.11-2.395v-5.033c.028-2.864-1.307-4.28-4.007-4.253a8.244 8.244 0 0 0-3.357.806v1.343c1.06-.643 2.177-.95 3.357-.94 1.774 0 2.641.98 2.595 2.929v.583h-.27c-.744 0-1.52.024-2.325.066-.82.077-1.581.24-2.282.496-.7.237-1.275.632-1.724 1.183-.46.554-.691 1.306-.691 2.26-.029.583.192 1.248.67 1.993.266.344.657.624 1.163.849.493.239 1.132.367 1.922.38a4.616 4.616 0 0 0 2.128-.56 3.409 3.409 0 0 0 1.5-1.542h.041z"/></g><g><path fill="#fff" d="M22.619 75.406l6.869-9.017h-6.6V65.18h8.232v1.21l-6.866 8.995h6.866v1.207h-8.501z"/></g><g><path fill="#fff" d="M39.467 71.535c0 .297-.017.68-.048 1.143-.03.444-.157.902-.378 1.365-.21.43-.546.803-1.009 1.115-.477.331-1.125.492-1.945.492-.657 0-1.207-.16-1.655-.492-.479-.312-.716-.833-.716-1.563 0-.626.171-1.128.515-1.5.31-.374.728-.652 1.251-.829a6.96 6.96 0 0 1 1.747-.382c.609-.028 1.224-.043 1.834-.043h.404zm.133 5.057h1.385c-.088-.73-.124-1.53-.11-2.395v-5.033c.028-2.864-1.305-4.28-4.007-4.253a8.265 8.265 0 0 0-3.355.806v1.343c1.062-.643 2.18-.95 3.355-.94 1.779 0 2.644.98 2.6 2.929v.583h-.272c-.743 0-1.521.024-2.328.066-.82.077-1.579.24-2.279.496a3.666 3.666 0 0 0-1.721 1.183c-.465.554-.699 1.306-.699 2.26-.027.583.2 1.248.677 1.993.266.344.654.624 1.16.849.491.239 1.134.367 1.925.38a4.621 4.621 0 0 0 2.124-.56 3.383 3.383 0 0 0 1.5-1.542h.045z"/></g><g><path fill="#fff" d="M43 67.863c0-.875-.031-1.773-.092-2.68h1.369v2.035h.044c.134-.269.291-.538.471-.807.178-.27.4-.513.667-.737.287-.24.636-.423 1.054-.562.418-.13.917-.2 1.499-.2 1.401.016 2.408.435 3.02 1.255.58.806.87 1.848.87 3.134v7.288h-1.407v-6.933c0-1.088-.2-1.955-.605-2.596-.432-.609-1.133-.923-2.1-.94-1.255.032-2.134.474-2.644 1.344-.268.4-.454.84-.558 1.318a6.465 6.465 0 0 0-.179 1.502v6.305H43z"/></g><g><path fill="#fff" d="M55.753 75.248l3.58-3.958c.985-1.06 1.85-2.14 2.592-3.243.748-1.091 1.137-2.108 1.166-3.07-.015-.848-.28-1.52-.786-2.033-.504-.506-1.16-.771-1.963-.782-1.348.01-2.6.389-3.761 1.117l-.27-1.41a12.047 12.047 0 0 1 1.945-.76 7.404 7.404 0 0 1 1.993-.29c1.313 0 2.385.329 3.222.984.848.669 1.283 1.71 1.297 3.11-.03 1.177-.49 2.395-1.386 3.645a32.25 32.25 0 0 1-2.908 3.603l-2.82 3.087h7.472v1.344h-9.373z"/></g><g><path fill="#fff" d="M72.06 62.162c.82.01 1.47.23 1.948.65.476.431.834.989 1.075 1.674.238.69.401 1.404.49 2.147.045.777.07 1.493.07 2.153 0 .656-.025 1.361-.07 2.122-.089.747-.252 1.46-.49 2.148-.241.684-.6 1.24-1.075 1.658-.478.46-1.128.692-1.948.692-.804 0-1.436-.233-1.9-.692-.495-.419-.86-.974-1.098-1.658a9.409 9.409 0 0 1-.469-2.148 21.734 21.734 0 0 1-.113-2.122c0-.66.039-1.376.113-2.153.076-.743.23-1.457.469-2.147.239-.685.603-1.243 1.097-1.674.465-.42 1.097-.64 1.9-.65m0-1.343c-1.013.014-1.853.252-2.527.715a4.789 4.789 0 0 0-1.59 1.88c-.697 1.643-1.032 3.433-1.005 5.372-.013.816.053 1.684.203 2.591.133.925.373 1.788.714 2.596a4.89 4.89 0 0 0 1.569 1.971c.67.522 1.55.786 2.637.804 1.12-.018 2.022-.282 2.71-.804a4.729 4.729 0 0 0 1.54-1.971c.36-.808.598-1.67.72-2.596.1-.907.155-1.775.155-2.59.028-1.94-.299-3.73-.987-5.373a4.843 4.843 0 0 0-1.564-1.88c-.673-.463-1.527-.7-2.574-.715z"/></g><g><path fill="#fff" d="M82.33 60.979h1.388v15.613h-1.546V62.72l-2.526 2.215-.851-1.004z"/></g><g><path fill="#fff" d="M92.196 69.5c-2.208-.028-3.31-1.248-3.31-3.647 0-1.074.306-1.96.915-2.666.584-.666 1.448-1.01 2.595-1.027 1.163.017 2.023.41 2.576 1.186.52.777.781 1.67.781 2.685 0 1.046-.304 1.873-.916 2.482-.626.656-1.51.987-2.641.987m.247-8.684c-1.599.017-2.843.487-3.738 1.414-.908.936-1.363 2.184-1.363 3.734 0 .957.163 1.746.49 2.371.314.628.71 1.124 1.187 1.498.475.36.999.615 1.565.76a5.65 5.65 0 0 0 1.612.248c.745 0 1.447-.164 2.1-.491.643-.312 1.163-.79 1.568-1.433h.044c.018 1.657-.357 3.142-1.115 4.449-.794 1.303-2.186 1.98-4.188 2.04-.983 0-1.84-.167-2.57-.493l-.133 1.478c.82.222 1.657.342 2.504.357 2.61-.03 4.45-.866 5.525-2.506 1.03-1.613 1.535-3.619 1.523-6.02 0-.94-.06-1.847-.178-2.728a7.527 7.527 0 0 0-.764-2.37 4.08 4.08 0 0 0-1.517-1.682c-.66-.414-1.508-.626-2.552-.626"/></g></g><g><g><path fill="#fff" d="M23.949 57.854c-2.452 0-4.098-2.01-4.098-5.006 0-2.994 1.646-5.006 4.098-5.006 2.45 0 4.098 2.012 4.098 5.006 0 2.995-1.647 5.006-4.098 5.006m0-11.186c-4.186 0-5.671 3.329-5.671 6.18 0 2.852 1.485 6.18 5.67 6.18 4.188 0 5.672-3.328 5.672-6.18 0-2.851-1.484-6.18-5.671-6.18"/></g><g><path fill="#fff" d="M32.342 48.838v-1.936h-1.334l.001 11.802h1.428v-5.83l-.002-.076c.002-2.174.619-4.773 3.553-4.773l.446.02.005-.045.072-1.377h-.166c-1.983 0-3.326.748-4.003 2.215"/></g><g><path fill="#fff" d="M61.364 49.203c-.985-.325-1.705-.513-2.88-.513-.865 0-1.897.304-1.897 1.33 0 1.911 5.593.699 5.593 5.032 0 2.798-2.569 3.917-5.185 3.917-1.226 0-2.473-.21-3.649-.512l.192-2.565c1.008.489 2.064.792 3.167.792.818 0 2.114-.303 2.114-1.468 0-2.354-5.593-.746-5.593-5.08 0-2.587 2.328-3.73 4.848-3.73 1.513 0 2.498.234 3.505.444z"/></g><g><path fill="#fff" d="M76.343 58.704V46.7h3.217v12.003z"/></g><g><path fill="#fff" d="M99.68 49.203c-.985-.325-1.705-.513-2.88-.513-.866 0-1.897.304-1.897 1.33 0 1.911 5.592.699 5.592 5.032 0 2.798-2.568 3.917-5.184 3.917-1.225 0-2.473-.21-3.65-.512l.193-2.565c1.008.489 2.064.792 3.168.792.817 0 2.113-.303 2.113-1.468 0-2.354-5.593-.746-5.593-5.08 0-2.587 2.328-3.73 4.85-3.73 1.512 0 2.495.234 3.503.444z"/></g><g><path fill="#fff" d="M70.06 52.08l4.556-5.38h-3.793l-3.84 4.803h-.048v-11.26l-3.217.982v17.479h3.217v-5.827h.048l4.13 5.827h4.08z"/></g><g><path fill="#fff" d="M46.259 57.81c-3.309 0-3.667-3.501-3.667-5.006 0-1.506.358-5.007 3.667-5.007 2.533 0 3.667 2.514 3.667 5.007 0 2.491-1.134 5.005-3.667 5.005m5.038-16.908l-1.37.42v7.296c-.298-.5-1.413-2.026-3.909-1.995-4.13.053-4.998 3.39-4.998 6.182 0 3.811 1.915 6.18 5 6.18 1.836 0 3.078-.676 3.906-2.11v1.83h1.428v-17.82z"/></g><g><path fill="#fff" d="M39.371 40.902l-1.37.418v17.384h1.428v-17.82z"/></g><g><path fill="#fff" d="M81.636 41.225v17.479h3.216V40.242z"/></g><g><path fill="#fff" d="M86.705 41.225h-.002v17.479h3.218V40.242z"/></g><g><path fill="#fff" d="M79.81 42.22a1.792 1.792 0 1 0-3.583 0 1.792 1.792 0 0 0 3.584 0"/></g><g><path fill="#fff" d="M1.57 46.902H.037l.02.06c.072.221 3.843 11.607 3.879 11.71l.01.032h1.763l3.337-10.279h.109l3.336 10.28h1.765l4.004-11.803h-1.424L13.452 57.18h-.11l-3.24-10.278H8.339L4.93 57.18H4.82L1.604 46.902z"/></g><g><path fill="#fff" d="M73.458 20.595s5.649-1 7.498-5.49c0 0 32.887 6.736 13.472 24.28 0 0 7.205-6.784 3.182-12.211 0 0 2.245 6.737-6.55 11.274 0 0 19.074-13.549-17.602-17.853"/></g><g><path fill="#fff" d="M91.478 18.138c2.3 1.138 3.91 2.256 4.851 2.99C96.742 9.354 88.3 2.772 88.3 2.772c-.245.754-.982 1.596-2.035 1.982-1.052.386-1.684 1.65-1.684 1.65 4.126 3.43 6.108 7.62 6.897 11.734"/></g><g><path fill="#fff" d="M80.083 15.939c.498-.745.638-1.256.638-1.256 2.173.387 4.124.896 5.861 1.465C82.98 5.874 76.278.251 76.278.251c-.188.539-2.152 1.52-3.486 2.106-1.333.584-.982 3.064-.982 3.064 3.664 3.028 6.33 6.734 8.273 10.518"/></g><g><path fill="#fff" d="M93.87 27.32c-.454 5.068-3.464 10.45-3.464 10.45 2.125-3.233 3.577-6.268 4.517-9.096a5.902 5.902 0 0 0-1.054-1.354"/></g><g><path fill="#fff" d="M93.474 26.96a11.737 11.737 0 0 0-1.704-1.2c-.528 5.455-2.347 9.554-2.347 9.554 1.052-1.193 1.86-3.123 1.86-3.123.034 1.369-1.088 4.07-1.088 4.07 1.93-3.102 2.855-6.874 3.28-9.302"/></g><g><path fill="#fff" d="M82.06 37.579c-1.169-.63-2.865-1.3-6.35-3.999 2.638 1.986 7.042 3.254 7.042 3.254-9.723-4.935-11.843-9.41-11.843-9.41-.936-.03-1.5.564-1.87.768-.372.203-1.383.185-1.383.185 3.706 5.975 14.404 9.202 14.404 9.202z"/></g><g><path fill="#fff" d="M77.71 21.495c-3.23-.535-5.603-.742-5.603-.742a19.307 19.307 0 0 0 3.33-1.148c-4.547-3.311-9.077-4.126-9.077-4.126s-.842.28-.96 1.684c-.116 1.403-1.192 1.59-1.192 1.59 16.982 4.538 19.53 18.526 19.53 18.526-1.157-6.316-3.613-10.35-3.613-10.35 2.596 2.666 4.386 9.438 4.386 9.438-.576-7-3.48-11.72-6.8-14.872"/></g><g><path fill="#fff" d="M82.792 22.507c2.445 7.543 2.491 13.93 2.491 13.93 1.81-3.508 1.333-11.579 1.333-11.579 1.684 3.298 1.474 12.28 1.474 12.28.863-4.72.897-9.036.401-12.92-1.793-.688-3.764-1.252-5.699-1.711"/></g></g></g></g></svg>